<svg width="117" height="25" viewBox="0 0 117 25" fill="none" xmlns="http://www.w3.org/2000/svg">
<path d="M12.48 24.416C10.304 24.416 8.32 23.904 6.528 22.88C4.75733 21.8347 3.36 20.4267 2.336 18.656C1.312 16.8853 0.8 14.944 0.8 12.832C0.8 10.6987 1.29067 8.74667 2.272 6.976C3.27467 5.184 4.66133 3.776 6.432 2.752C8.20267 1.70667 10.2187 1.184 12.48 1.184C14.2933 1.184 15.8507 1.472 17.152 2.048C18.4747 2.60267 19.648 3.488 20.672 4.704L17.504 7.456C16.16 6.048 14.4853 5.344 12.48 5.344C11.072 5.344 9.83467 5.68533 8.768 6.368C7.70133 7.02933 6.88 7.936 6.304 9.088C5.728 10.2187 5.44 11.4667 5.44 12.832C5.44 14.1973 5.728 15.4453 6.304 16.576C6.90133 17.7067 7.73333 18.6027 8.8 19.264C9.888 19.9253 11.1467 20.256 12.576 20.256C14.6667 20.256 16.3733 19.5307 17.696 18.08L20.96 20.864C20.064 21.952 18.8907 22.816 17.44 23.456C16.0107 24.096 14.3573 24.416 12.48 24.416ZM29.114 24.416C27.6207 24.416 26.2447 24.032 24.986 23.264C23.7273 22.4747 22.7247 21.4187 21.978 20.096C21.2527 18.7733 20.89 17.3227 20.89 15.744C20.89 14.1653 21.2527 12.7147 21.978 11.392C22.7247 10.048 23.7273 8.98133 24.986 8.192C26.2447 7.40267 27.6207 7.008 29.114 7.008C30.4793 7.008 31.578 7.264 32.41 7.776C33.2633 8.288 33.9247 9.024 34.394 9.984V7.36H38.682V24H34.49V21.28C33.9993 22.2827 33.3273 23.0613 32.474 23.616C31.642 24.1493 30.522 24.416 29.114 24.416ZM25.21 15.712C25.21 16.5653 25.402 17.3653 25.786 18.112C26.1913 18.8373 26.7353 19.424 27.418 19.872C28.122 20.2987 28.922 20.512 29.818 20.512C30.7353 20.512 31.546 20.2987 32.25 19.872C32.9753 19.4453 33.53 18.8693 33.914 18.144C34.298 17.4187 34.49 16.6187 34.49 15.744C34.49 14.8693 34.298 14.0693 33.914 13.344C33.53 12.5973 32.9753 12.0107 32.25 11.584C31.546 11.136 30.7353 10.912 29.818 10.912C28.922 10.912 28.122 11.136 27.418 11.584C26.714 12.0107 26.17 12.5867 25.786 13.312C25.402 14.0373 25.21 14.8373 25.21 15.712ZM41.2488 0.639999H45.5688V24H41.2488V0.639999ZM52.7638 15.68L46.8438 7.36H51.9958L55.3878 12.64L58.9078 7.36H63.9638L58.0438 15.744L64.2838 24H59.0358L55.4198 18.688L51.6758 24H46.5237L52.7638 15.68ZM67.5528 24.416C66.7421 24.416 66.0594 24.1387 65.5048 23.584C64.9501 23.0293 64.6728 22.368 64.6728 21.6C64.6728 20.832 64.9501 20.1813 65.5048 19.648C66.0594 19.0933 66.7421 18.816 67.5528 18.816C68.3634 18.816 69.0354 19.0933 69.5688 19.648C70.1234 20.1813 70.4008 20.832 70.4008 21.6C70.4008 22.3893 70.1234 23.0613 69.5688 23.616C69.0354 24.1493 68.3634 24.416 67.5528 24.416ZM72.3738 7.36H76.6298V9.792C77.5044 7.91467 79.2004 6.976 81.7178 6.976C82.8911 6.976 83.9471 7.25333 84.8858 7.808C85.8458 8.34133 86.5924 9.10933 87.1258 10.112C87.7018 9.06667 88.4271 8.288 89.3018 7.776C90.1978 7.24267 91.3498 6.976 92.7578 6.976C93.9524 6.976 95.0298 7.264 95.9898 7.84C96.9498 8.39467 97.7071 9.19467 98.2618 10.24C98.8164 11.264 99.0938 12.4587 99.0938 13.824V24H94.7738V14.88C94.7738 13.4933 94.4751 12.4587 93.8778 11.776C93.2804 11.0933 92.4698 10.752 91.4458 10.752C90.3578 10.752 89.5151 11.0613 88.9178 11.68C88.3418 12.2987 88.0538 13.3653 88.0538 14.88V24H83.7338V14.88C83.7338 13.4933 83.4138 12.4587 82.7738 11.776C82.1338 11.0933 81.2591 10.752 80.1498 10.752C79.1684 10.752 78.3471 11.104 77.6858 11.808C77.0244 12.4907 76.6938 13.5147 76.6938 14.88V24H72.3738V7.36ZM107.675 24.384C106.48 24.384 105.403 24.1067 104.443 23.552C103.483 22.976 102.725 22.176 102.171 21.152C101.616 20.1067 101.339 18.9013 101.339 17.536V7.36H105.659V16.48C105.659 19.232 106.768 20.608 108.987 20.608C109.968 20.608 110.789 20.2667 111.451 19.584C112.112 18.88 112.443 17.8453 112.443 16.48V7.36H116.763V24H112.571V21.504C112.165 22.4853 111.568 23.2107 110.779 23.68C109.989 24.1493 108.955 24.384 107.675 24.384Z" fill="white"/>
</svg>
